<svg xmlns="http://www.w3.org/2000/svg" xmlns:xlink="http://www.w3.org/1999/xlink" viewBox="0 0 100 100"><defs><clipPath id="clip-path"><rect x="275.96" y="-905" width="1600" height="300" fill="none"/></clipPath><linearGradient id="linear-gradient" x1="240.05" y1="1042.99" x2="1708.93" y2="1042.99" gradientTransform="matrix(0, -1, -1, 0, 1572.1, 346.99)" gradientUnits="userSpaceOnUse"><stop offset="0" stop-color="#37a1da"/><stop offset="0.35" stop-color="#7fccbd"/><stop offset="0.8" stop-color="#e24926"/></linearGradient><linearGradient id="linear-gradient-2" x1="-3374.17" y1="-2949.22" x2="-2324.43" y2="-2949.22" gradientTransform="matrix(1, 0, 0, -1, 3419.13, -3019.6)" gradientUnits="userSpaceOnUse"><stop offset="0" stop-color="#3b9dd7"/><stop offset="1" stop-color="#758dc7"/></linearGradient><linearGradient id="linear-gradient-3" x1="-2143.75" y1="-5143.94" x2="-1094.01" y2="-5143.94" gradientTransform="matrix(0, 1, 1, 0, 5520.14, 1145.02)" xlink:href="#linear-gradient-2"/></defs><g style="isolation:isolate"><g id="Layer_2" data-name="Layer 2"><g clip-path="url(#clip-path)"><circle cx="529.11" cy="-627.5" r="734.44" transform="translate(522.67 193.28) rotate(-39.69)" fill="url(#linear-gradient)" style="mix-blend-mode:multiply"/><circle cx="569.83" cy="-70.38" r="524.87" transform="translate(176.28 347.68) rotate(-39.69)" fill="url(#linear-gradient-2)" style="mix-blend-mode:multiply"/><circle cx="376.2" cy="-473.86" r="524.87" transform="translate(813.2 -55.4) rotate(-84.69)" fill="url(#linear-gradient-3)" style="mix-blend-mode:multiply"/></g><path d="M50,0a50,50,0,1,0,50,50A50,50,0,0,0,50,0ZM77,30.58l-26,21-26-21Zm0,39H25V36.13L51,57.2,77,36.13Z" fill="#FF0000"/></g></g></svg>