<svg id="Layer_1" data-name="Layer 1" xmlns="http://www.w3.org/2000/svg" viewBox="0 0 405.2 768.6"><title>juliet-logo</title><g fill="none" fill-rule="evenodd" stroke="currentColor" stroke-width="1" class="lines">
<path d="M149.7,627.4c1.6-5.4,1.8-10.7,1.8-16.2a3.4,3.4,0,0,1,.1-0.9V501.7H123.5v83.8c0.2,2.7.4,5.4,0.5,8.1a2.6,2.6,0,0,1,.1,1.7q0.2,2.8.2,5.7a7.4,7.4,0,0,1,.1.9,58.9,58.9,0,0,1,0,6.9c-0.2,3.9.5,8.6-.9,12.4h0v10.1h25.3C149.1,629.8,149.4,628.4,149.7,627.4Z" transform="translate(-27.3 -5.4)" fill="#231f20"/><text x="-27.3" y="-5.4"/><path d="M149.7,622.9c1.5-6.8,1.8-13.4,1.8-20.3-3.2-15-14.2-26.5-27.7-28.3,0.1,1.7.2,3.5,0.3,5.2a4.2,4.2,0,0,1,.1,2.1q0.2,3.6.2,7.3c0.1,0.4.1,0.8,0.1,1.1,0.2,2.9.1,5.9,0,8.8-0.2,5,.5,11-0.9,15.9a8.6,8.6,0,0,1-4.4,5.4h-0.2a6.6,6.6,0,0,1-3.6.5H115l-1.4-.3a5.4,5.4,0,0,1-1.7-.5c-4.9-2.4-5.3-10-5.2-16.3-6.1-.2-12.1-0.6-18.2-1.2a43,43,0,0,0-1,9.1c0,20.7,14.5,37.5,32.4,37.5,12.4,0,23.1-8.1,28.6-19.9C149,626.8,149.3,624.5,149.7,622.9Z" transform="translate(-27.3 -5.4)" fill="#231f20"/><text transform="translate(162.9 469)" writing-mode="tb" glyph-orientation-vertical="0deg" font-size="160" fill="#231f20" font-family="Myriad Pro" style="text-orientation:upright">B</text><path d="M79.1,112.6c29,0.4,61.7,1,87.8-13.9,3.6-2.1,7.2-5.6,3.6-9.5s-8.2-3.8-12.3-2.9c-12.7,2.9-18.2,19-22.1,29.7-5.4,14.7-8.5,30.1-12.4,45.2s-7.9,35.8-21.9,44.5c-7.3,4.6-17.2,4.3-22.4-3-3.6-5-4.4-11.8-3-17.7,3.9-16.2,22.8-21.9,37.4-23.7,19.3-2.4,39,.7,57.3,7.2,5.9,2.1,11.9,4.6,17.3,0s5.2-12.3,4.7-18.9c-0.1-1.3-2.7-.3-2.9.5-2.5,9.8-7.3,29.5,8.7,29.4,13.3-.1,17.5-13.7,19.7-24.5l-2.9.5c2.2,8.8,12.5,10.7,20,7.8,9.7-3.7,18-13,24.5-20.9,14.5-17.6,23.6-39.5,22.1-62.5-0.1-1.2-2.5-.4-2.8.3a325.1,325.1,0,0,0-22.2,78c-1.1,7-1.3,17.5,8.8,14.6s18-10.7,23.3-18.9h-2.8c-0.7,4.1-1.1,9.9,1.9,13.3s7.8,1.9,11.4.1a80.8,80.8,0,0,0,30.6-27.1,0.7,0.7,0,0,0-.5-1c-5.2-1.6-10.3.7-13.4,5s-7.1,14.3-4,19.5,8.9,4.9,13.4,4.3c6.7-.9,13.2-4.7,18.6-8.7,13.2-9.7,22.5-24,30-38.3A212.3,212.3,0,0,0,397.9,6c-0.1-1.3-2.7-.3-2.9.5-7.8,25.8-7.7,52.9-11.9,79.4-2,12.5-4.5,26.3-11.3,37.3s-22.1,15.5-35.7,17.2-26.8,1.1-36.9-7.3c-7.4-6.1-12.3-16.7-10.2-26.3,1.6-7.4,9.3-15.8,17.3-10.9,5.2,3.2,7.9,9.6,10.4,14.8A220.8,220.8,0,0,1,330,147.2c3.5,12.6,6.1,25.3,8.6,38.1,1.1,5.8,2.2,11.7,3.2,17.5l1.9,10.5c0.5,2.5.4,6.5,2.2,8.5,5.1,5.9,15.9-3.7,19.7-6.5a164.1,164.1,0,0,0,24.7-22.3c15.7-17.2,28.5-37.4,38.8-58.3,3.8-7.7,6.5-18-3.3-22.3-4.6-2-10.1-2.2-15.1-2.6a149,149,0,0,0-21.2,0c-62.3,4.4-120.9,43.5-184.5,30.7-1.1-.2-3.4,1.5-1.7,1.8,56.5,11.4,109.4-17.6,163.7-27.7,15.3-2.8,30.9-4.2,46.4-2.6,7.2,0.7,16.6,2.1,16.4,11.3-0.1,6-3.8,11.7-6.5,16.8-11.8,22.4-26.1,43.8-44.5,61.2a152.9,152.9,0,0,1-14.5,12.2l-6.6,4.6c-1.5,1-3.8,2.8-5.5,3-4.6.5-4.5-2.6-5-5.3-2.6-13.4-4.8-26.9-7.4-40.3-5-24.8-11.1-51.1-23.9-73.2-4.5-7.8-12.4-13.2-21.1-8s-10.1,13.1-8.9,21.2c3.5,22.4,27.2,28.6,46.6,26.9,11.6-1,25.2-3,34.6-10.6s13.8-21.8,16.6-33.9c6.9-30.3,5.3-62,14.3-91.9l-2.9.5a212,212,0,0,1-20.7,109.4c-7.5,15.4-16.9,31.2-30.8,41.6-6.3,4.7-17.1,11.7-25.2,7.4-4.1-2.2-3.8-6.4-2.8-10.4s3.8-14.9,9.9-13.5c2.6,0.6,1.6.4,0.1,2.4l-3,3.7q-2.1,2.4-4.3,4.6a77.2,77.2,0,0,1-12,9.7c-3.7,2.4-11.7,8.5-15.3,3.5-2.3-3.1-1.7-8.1-1.1-11.6,0.3-1.5-2.4-.6-2.8,0a45.8,45.8,0,0,1-10.4,11.4c-3.4,2.6-11.7,8.6-15.3,4.7s-1.1-9.8-.5-13.7,1.7-10.3,2.8-15.4a323.4,323.4,0,0,1,18.9-60.3l-2.8.3c1.2,18.7-4.8,36.8-15.1,52.3a110.3,110.3,0,0,1-18.1,20.8c-4.3,3.8-9.3,8.2-15.3,8.8s-11-2.5-12.4-8c-0.3-1.2-2.7-.4-2.9.5-1.9,9.2-5.6,24.1-18,22.1s-6.5-20-4.6-27.5l-2.9.5c0.3,4.2.8,9-1,13-3,6.8-9.6,5.8-15.6,3.7a147.5,147.5,0,0,0-22.8-6.2,118.5,118.5,0,0,0-42.6-.5c-11.4,2.1-23.6,6.5-30.7,16.1-5.3,7.2-6.5,17.6-2.1,25.6s15.7,10.6,24.6,6.8c11.8-5.1,17.1-17.8,21.1-29.2,5-14.5,8-29.5,11.9-44.2a201.4,201.4,0,0,1,7.4-23.1c2.7-6.7,5.6-14.3,10.7-19.5s11-7.2,15.8-3-4.6,9.4-8.9,11.2a115.1,115.1,0,0,1-26,7.3c-17.1,2.9-34.6,2.7-51.9,2.5-1.3,0-3,1.9-1.1,1.9h0Z" transform="translate(-27.3 -5.4)" fill="#231f20"/><path d="M156.4,102.4c0.9,0,3.1-1.4,1.2-1.4s-3.1,1.4-1.2,1.4h0Z" transform="translate(-27.3 -5.4)" fill="#231f20"/></g></svg>