<?xml version="1.0" encoding="UTF-8" standalone="no"?>
<svg width="160px" height="165px" viewBox="0 0 154 110" version="1.1" xmlns="http://www.w3.org/2000/svg" xmlns:xlink="http://www.w3.org/1999/xlink">
    <!-- Generator: Sketch 44.1 (41455) - http://www.bohemiancoding.com/sketch -->
    <title>Slice 1</title>
    <desc>Created with Sketch.</desc>
    <defs>
        <ellipse id="path-1" cx="32.0267045" cy="16.2017563" rx="8.02670445" ry="7.20175633"></ellipse>
    </defs>
    <g id="Page-1" stroke="none" stroke-width="1" fill="none" fill-rule="evenodd">
        <text id="B" font-family="LucidaGrande, Lucida Grande" font-size="100" font-weight="normal" fill-opacity="0.905315897" fill="#ffffff">
            <tspan x="37" y="80">B</tspan>
        </text>
        <text id="." font-family="AlNile, Al Nile" font-size="144" font-weight="normal" fill="#ffffff">
            <tspan x="40" y="97">  .</tspan>
        </text>
        <path d="M7.23688651,91.3650327 C7.65721386,91.3650327 9.1772512,91.6277117 9.98849107,92.0720689 C10.7997309,92.5164261 11.1646804,93.3107741 11.467015,93.5218334 C12.2168548,94.0452953 13.4021368,94.6837542 14.4536585,94.7401328 C15.2293129,94.7817205 16.1262677,94.7511359 17.6570529,94.7401328 C18.5472963,94.7337339 19.4889574,94.7643186 20.6345951,94.7401328 C21.991423,94.5863299 23.2183981,93.7614943 23.6504311,93.5218334 C24.2984806,93.1623421 24.777499,92.6236434 25.2086507,92.0720689 C25.6044677,91.5656982 26.1438925,90.7764676 26.5401388,89.2264841 C26.7260836,88.4991299 26.9573094,87.0699087 27.2338162,84.9388204 L27.2876876,31 L36.9772232,31.0429813 L37.1474834,85.9367588 C37.2757462,88.8916478 37.083095,90.9367511 36.5695298,92.0720689 C36.363983,92.5264628 36.0078796,94.6527281 34.7790163,96.5018146 C33.5501529,98.3509011 33.0424157,98.0466056 32.3115732,98.7156531 C31.4663602,99.4894007 29.4037441,100.13152 27.2876876,100.755952 C25.8769832,101.17224 23.9939229,101.392473 21.6385067,101.416652 C18.6539986,101.526487 16.2590492,101.526487 14.4536585,101.416652 C14.1861255,101.400376 13.9054128,101.381676 13.6115202,101.360551 C11.9221401,101.239121 9.79726217,101.037588 7.23688651,100.755952 C5.55525108,100.55858 3.68828765,99.1200199 3.29487667,98.7156531 C3.12185707,98.5378151 2.6606074,98.3026199 2.3381864,97.8387745 C2.11647216,97.5198091 1.96040565,97.0927223 2.00885365,96.5018146 C2.07635255,95.6785482 2.1351302,94.6082038 2.52179669,93.6970986 C2.81625865,93.0032557 3.30087746,92.4017625 4.12431689,92.0720689 C6.44149759,91.1443021 5.90924603,91.3650327 7.23688651,91.3650327 Z" id="Path-2" stroke="#ffffff" stroke-width="2"></path>
        <g id="Oval">
            <use stroke="#ffffff" stroke-width="1" fill="#ffffff" fill-rule="evenodd" xlink:href="#path-1"></use>
            <use stroke="#ffffff" stroke-width="2" xlink:href="#path-1"></use>
        </g>
    </g>
</svg>