<svg xmlns="http://www.w3.org/2000/svg" xmlns:xlink="http://www.w3.org/1999/xlink" viewBox="0 0 100 100"><defs><clipPath id="clip-path"><rect x="5.32" y="-896.83" width="1600" height="300" fill="none"/></clipPath><linearGradient id="linear-gradient" x1="-30.6" y1="1051.16" x2="1438.28" y2="1051.16" gradientTransform="matrix(0, -1, -1, 0, 1309.62, 84.52)" gradientUnits="userSpaceOnUse"><stop offset="0" stop-color="#37a1da"/><stop offset="0.35" stop-color="#7fccbd"/><stop offset="0.8" stop-color="#ffffff"/></linearGradient><linearGradient id="linear-gradient-2" x1="-3644.81" y1="-2941.05" x2="-2595.07" y2="-2941.05" gradientTransform="matrix(1, 0, 0, -1, 3419.13, -3003.26)" gradientUnits="userSpaceOnUse"><stop offset="0" stop-color="#3b9dd7"/><stop offset="1" stop-color="#758dc7"/></linearGradient><linearGradient id="linear-gradient-3" x1="-2414.39" y1="-5135.77" x2="-1364.65" y2="-5135.77" gradientTransform="matrix(0, 1, 1, 0, 5241.33, 1423.84)" xlink:href="#linear-gradient-2"/></defs><g style="isolation:isolate"><g id="Layer_2" data-name="Layer 2"><g clip-path="url(#clip-path)"><circle cx="258.47" cy="-619.32" r="734.44" transform="translate(455.08 22.32) rotate(-39.69)" fill="url(#linear-gradient)" style="mix-blend-mode:multiply"/><circle cx="299.19" cy="-62.21" r="524.87" transform="translate(108.68 176.73) rotate(-39.69)" fill="url(#linear-gradient-2)" style="mix-blend-mode:multiply"/><circle cx="105.56" cy="-465.69" r="524.87" transform="translate(559.47 -317.47) rotate(-84.69)" fill="url(#linear-gradient-3)" style="mix-blend-mode:multiply"/></g><path d="M50,0a50,50,0,1,0,50,50A50,50,0,0,0,50,0ZM75.27,40.19c.76,16.83-11.79,35.6-34,35.6a33.86,33.86,0,0,1-18.34-5.38,24.08,24.08,0,0,0,17.72-5,12,12,0,0,1-11.18-8.31,12,12,0,0,0,5.41-.2A12,12,0,0,1,25.26,45a11.94,11.94,0,0,0,5.42,1.5,12,12,0,0,1-3.7-16,34,34,0,0,0,24.67,12.5A12,12,0,0,1,72,32.15a23.87,23.87,0,0,0,7.6-2.9,12,12,0,0,1-5.26,6.62A23.87,23.87,0,0,0,81.25,34,24,24,0,0,1,75.27,40.19Z" fill="#ffffff"/></g></g></svg>